<svg xmlns="http://www.w3.org/2000/svg" xmlns:xlink="http://www.w3.org/1999/xlink" width="1024" zoomAndPan="magnify" viewBox="0 0 768 576" height="768" preserveAspectRatio="xMidYMid meet" version="1.0"><defs><clipPath id="38202f08b4"><path d="M 111.390625 15.390625 L 652.140625 15.390625 L 652.140625 556.140625 L 111.390625 556.140625 Z M 111.390625 15.390625 " clip-rule="nonzero"/></clipPath><clipPath id="84f3a83e7f"><path d="M 139.558594 294.214844 L 141.460938 294.214844 L 141.460938 302.652344 L 139.558594 302.652344 Z M 139.558594 294.214844 " clip-rule="nonzero"/></clipPath><clipPath id="875c49f018"><path d="M 141.449219 294.976562 C 141.148438 302.550781 140.699219 302.699219 140.398438 302.625 C 140.175781 302.550781 139.875 302.023438 139.949219 301.800781 C 140.023438 301.574219 141.074219 301.273438 141.226562 301.425781 C 141.375 301.5 141 302.625 140.699219 302.625 C 140.550781 302.699219 140.101562 302.324219 139.949219 301.875 C 139.5 300.824219 139.425781 296.023438 139.949219 294.976562 C 140.175781 294.523438 140.550781 294.226562 140.773438 294.226562 C 141 294.226562 141.449219 294.976562 141.449219 294.976562 " clip-rule="nonzero"/></clipPath></defs><g clip-path="url(#38202f08b4)"><path fill="#ffffff" d="M 544.636719 448.636719 C 501.128906 492.140625 443.285156 516.101562 381.761719 516.101562 C 320.234375 516.101562 262.394531 492.140625 218.882812 448.636719 C 175.378906 405.128906 151.421875 347.285156 151.421875 285.761719 C 151.421875 224.234375 175.378906 166.394531 218.882812 122.882812 C 262.394531 79.378906 320.234375 55.421875 381.761719 55.421875 C 443.285156 55.421875 501.128906 79.378906 544.636719 122.882812 C 588.140625 166.394531 612.101562 224.234375 612.101562 285.761719 C 612.101562 347.285156 588.140625 405.128906 544.636719 448.636719 Z M 381.761719 15.363281 C 309.53125 15.363281 241.632812 43.488281 190.558594 94.558594 C 139.488281 145.632812 111.363281 213.53125 111.363281 285.761719 C 111.363281 357.988281 139.488281 425.890625 190.558594 476.964844 C 241.632812 528.03125 309.53125 556.160156 381.761719 556.160156 C 453.988281 556.160156 521.886719 528.03125 572.964844 476.964844 C 624.03125 425.890625 652.160156 357.988281 652.160156 285.761719 C 652.160156 213.53125 624.03125 145.632812 572.964844 94.558594 C 521.886719 43.488281 453.988281 15.363281 381.761719 15.363281 " fill-opacity="1" fill-rule="nonzero"/></g><path fill="#ffffff" d="M 496.203125 187.886719 L 340.542969 343.546875 L 275.632812 278.632812 C 266.832031 269.832031 252.5625 269.832031 243.765625 278.632812 C 234.964844 287.4375 234.964844 301.703125 243.765625 310.5 L 324.605469 391.347656 C 329.011719 395.746094 334.777344 397.945312 340.542969 397.945312 C 346.308594 397.945312 352.078125 395.746094 356.476562 391.347656 L 528.066406 219.753906 C 536.871094 210.953125 536.871094 196.691406 528.066406 187.890625 C 519.265625 179.085938 505.003906 179.09375 496.203125 187.886719 " fill-opacity="1" fill-rule="nonzero"/><g clip-path="url(#84f3a83e7f)"><g clip-path="url(#875c49f018)"><path fill="#ffffff" d="M 136.949219 291.226562 L 144.449219 291.226562 L 144.449219 305.699219 L 136.949219 305.699219 Z M 136.949219 291.226562 " fill-opacity="1" fill-rule="nonzero"/></g></g></svg>