<svg xmlns="http://www.w3.org/2000/svg" xmlns:xlink="http://www.w3.org/1999/xlink" width="1024" zoomAndPan="magnify" viewBox="0 0 768 576" height="768" preserveAspectRatio="xMidYMid meet" version="1.0"><defs><clipPath id="867816225e"><path d="M 388.277344 441.300781 L 389.726562 441.300781 L 389.726562 442.496094 L 388.277344 442.496094 Z M 388.277344 441.300781 " clip-rule="nonzero"/></clipPath><clipPath id="4c7a22b247"><path d="M 389.699219 441.675781 C 389.023438 442.726562 388.425781 442.5 388.351562 442.351562 C 388.199219 442.125 388.351562 441.523438 388.5 441.375 C 388.726562 441.226562 389.476562 441.375 389.476562 441.375 " clip-rule="nonzero"/></clipPath></defs><g clip-path="url(#867816225e)"><g clip-path="url(#4c7a22b247)"><path fill="#545454" d="M 385.351562 438.375 L 392.765625 438.375 L 392.765625 445.648438 L 385.351562 445.648438 Z M 385.351562 438.375 " fill-opacity="1" fill-rule="nonzero"/></g></g><path fill="#545454" d="M 636.921875 484.851562 C 652.398438 500.324219 652.398438 525.449219 636.921875 540.921875 C 621.449219 556.398438 596.324219 556.398438 580.851562 540.921875 L 379.625 339.699219 L 178.402344 540.921875 C 162.925781 556.398438 137.800781 556.398438 122.328125 540.921875 C 106.851562 525.449219 106.851562 500.324219 122.328125 484.851562 L 323.550781 283.625 L 122.328125 82.402344 C 106.851562 66.925781 106.851562 41.800781 122.328125 26.328125 C 137.800781 10.851562 162.925781 10.851562 178.402344 26.328125 L 379.625 227.550781 L 580.851562 26.328125 C 596.324219 10.851562 621.449219 10.851562 636.921875 26.328125 C 652.398438 41.800781 652.398438 66.925781 636.921875 82.402344 L 435.699219 283.625 Z M 636.921875 484.851562 " fill-opacity="1" fill-rule="nonzero"/></svg>