<svg xmlns="http://www.w3.org/2000/svg" xmlns:xlink="http://www.w3.org/1999/xlink" width="1024" zoomAndPan="magnify" viewBox="0 0 768 576" height="768" preserveAspectRatio="xMidYMid meet" version="1.0"><defs><clipPath id="eba07a7a20"><path d="M 388.277344 441.300781 L 389.726562 441.300781 L 389.726562 442.496094 L 388.277344 442.496094 Z M 388.277344 441.300781 " clip-rule="nonzero"/></clipPath><clipPath id="2742a62727"><path d="M 389.699219 441.675781 C 389.023438 442.726562 388.425781 442.5 388.351562 442.351562 C 388.199219 442.125 388.351562 441.523438 388.5 441.375 C 388.726562 441.226562 389.476562 441.375 389.476562 441.375 " clip-rule="nonzero"/></clipPath></defs><g clip-path="url(#eba07a7a20)"><g clip-path="url(#2742a62727)"><path fill="#545454" d="M 385.351562 438.375 L 392.765625 438.375 L 392.765625 445.648438 L 385.351562 445.648438 Z M 385.351562 438.375 " fill-opacity="1" fill-rule="nonzero"/></g></g><path fill="#545454" d="M 645.96875 413.40625 C 590.808594 503.691406 487.300781 561.332031 371.398438 550.175781 C 236.488281 537.160156 126.578125 427.25 113.5625 292.339844 C 102.40625 176.4375 159.84375 72.933594 250.332031 17.769531 C 270.578125 5.375 292.890625 28.308594 280.703125 48.554688 C 252.605469 94.625 239.175781 150.820312 247.648438 210.527344 C 262.523438 315.890625 347.640625 401.011719 453.210938 416.09375 C 512.917969 424.5625 569.113281 411.339844 615.183594 383.035156 C 635.226562 370.640625 658.363281 393.160156 645.96875 413.40625 Z M 645.96875 413.40625 " fill-opacity="1" fill-rule="nonzero"/></svg>