<svg xmlns="http://www.w3.org/2000/svg" xmlns:xlink="http://www.w3.org/1999/xlink" width="1024" zoomAndPan="magnify" viewBox="0 0 768 576" height="768" preserveAspectRatio="xMidYMid meet" version="1.0"><defs><clipPath id="a84617f556"><path d="M 388.277344 441.300781 L 389.726562 441.300781 L 389.726562 442.496094 L 388.277344 442.496094 Z M 388.277344 441.300781 " clip-rule="nonzero"/></clipPath><clipPath id="a2ee307a1c"><path d="M 389.699219 441.675781 C 389.023438 442.726562 388.425781 442.5 388.351562 442.351562 C 388.199219 442.125 388.351562 441.523438 388.5 441.375 C 388.726562 441.226562 389.476562 441.375 389.476562 441.375 " clip-rule="nonzero"/></clipPath><clipPath id="a0367ae7cb"><path d="M 20.917969 42 L 755.578125 42 L 755.578125 540 L 20.917969 540 Z M 20.917969 42 " clip-rule="nonzero"/></clipPath></defs><g clip-path="url(#a84617f556)"><g clip-path="url(#a2ee307a1c)"><path fill="#545454" d="M 385.351562 438.375 L 392.765625 438.375 L 392.765625 445.648438 L 385.351562 445.648438 Z M 385.351562 438.375 " fill-opacity="1" fill-rule="nonzero"/></g></g><g clip-path="url(#a0367ae7cb)"><path fill="#545454" d="M 74.878906 236.804688 L 570.660156 236.804688 C 570.660156 236.804688 466.214844 133.113281 463.457031 129.566406 C 456.292969 120.378906 451.988281 108.859375 451.988281 96.320312 C 451.988281 82.460938 457.222656 69.871094 465.773438 60.261719 L 470.167969 55.871094 C 479.753906 47.320312 492.367188 42.066406 506.222656 42.066406 C 520.464844 42.066406 533.410156 47.636719 543.085938 56.628906 C 543.085938 56.628906 743.128906 256.351562 744.144531 257.667969 C 751.222656 266.835938 755.472656 278.269531 755.472656 290.757812 C 755.472656 303.210938 751.222656 314.660156 744.164062 323.8125 C 741.300781 327.515625 540.59375 527.363281 540.59375 527.363281 C 531.285156 534.917969 519.429688 539.449219 506.503906 539.449219 C 476.558594 539.449219 452.269531 515.175781 452.269531 485.230469 C 452.269531 472.09375 456.941406 460.046875 464.703125 450.667969 L 570.660156 344.710938 L 74.878906 344.710938 C 45.074219 344.710938 20.925781 320.542969 20.925781 290.757812 C 20.925781 260.953125 45.074219 236.804688 74.878906 236.804688 " fill-opacity="1" fill-rule="nonzero"/></g></svg>