<svg class="light-icon" xmlns="http://www.w3.org/2000/svg" xmlns:xlink="http://www.w3.org/1999/xlink" width="1024" zoomAndPan="magnify" viewBox="0 0 768 576" height="768" preserveAspectRatio="xMidYMid meet" version="1.0"><defs><clipPath id="2ba18eca88"><path d="M 388.277344 441.300781 L 389.726562 441.300781 L 389.726562 442.496094 L 388.277344 442.496094 Z M 388.277344 441.300781 " clip-rule="nonzero"/></clipPath><clipPath id="668005a2ab"><path d="M 389.699219 441.675781 C 389.023438 442.726562 388.425781 442.5 388.351562 442.351562 C 388.199219 442.125 388.351562 441.523438 388.5 441.375 C 388.726562 441.226562 389.476562 441.375 389.476562 441.375 " clip-rule="nonzero"/></clipPath><clipPath id="0b452db739"><path d="M 103.515625 7.515625 L 664.515625 7.515625 L 664.515625 568.515625 L 103.515625 568.515625 Z M 103.515625 7.515625 " clip-rule="nonzero"/></clipPath></defs><g clip-path="url(#2ba18eca88)"><g clip-path="url(#668005a2ab)"><path fill="#545454" d="M 385.351562 438.375 L 392.765625 438.375 L 392.765625 445.648438 L 385.351562 445.648438 Z M 385.351562 438.375 " fill-opacity="1" fill-rule="nonzero"/></g></g><g clip-path="url(#0b452db739)"><path fill="#545454" d="M 383.996094 211.503906 C 426.070312 211.503906 460.492188 245.925781 460.492188 287.996094 C 460.492188 330.070312 426.070312 364.492188 383.996094 364.492188 C 341.925781 364.492188 307.503906 330.070312 307.503906 287.996094 C 307.503906 245.925781 341.925781 211.503906 383.996094 211.503906 M 383.996094 160.503906 C 313.621094 160.503906 256.503906 217.621094 256.503906 287.996094 C 256.503906 358.371094 313.621094 415.488281 383.996094 415.488281 C 454.371094 415.488281 511.488281 358.371094 511.488281 287.996094 C 511.488281 217.621094 454.371094 160.503906 383.996094 160.503906 Z M 129.011719 313.496094 L 180.011719 313.496094 C 194.035156 313.496094 205.507812 302.019531 205.507812 287.996094 C 205.507812 273.972656 194.035156 262.5 180.011719 262.5 L 129.011719 262.5 C 114.988281 262.5 103.515625 273.972656 103.515625 287.996094 C 103.515625 302.019531 114.988281 313.496094 129.011719 313.496094 Z M 587.984375 313.496094 L 638.980469 313.496094 C 653.003906 313.496094 664.480469 302.019531 664.480469 287.996094 C 664.480469 273.972656 653.003906 262.5 638.980469 262.5 L 587.984375 262.5 C 573.960938 262.5 562.484375 273.972656 562.484375 287.996094 C 562.484375 302.019531 573.960938 313.496094 587.984375 313.496094 Z M 358.5 33.011719 L 358.5 84.011719 C 358.5 98.035156 369.972656 109.507812 383.996094 109.507812 C 398.019531 109.507812 409.496094 98.035156 409.496094 84.011719 L 409.496094 33.011719 C 409.496094 18.988281 398.019531 7.515625 383.996094 7.515625 C 369.972656 7.515625 358.5 18.988281 358.5 33.011719 Z M 358.5 491.984375 L 358.5 542.980469 C 358.5 557.003906 369.972656 568.480469 383.996094 568.480469 C 398.019531 568.480469 409.496094 557.003906 409.496094 542.980469 L 409.496094 491.984375 C 409.496094 477.960938 398.019531 466.484375 383.996094 466.484375 C 369.972656 466.484375 358.5 477.960938 358.5 491.984375 Z M 230.75 98.800781 C 220.808594 88.855469 204.488281 88.855469 194.800781 98.800781 C 184.855469 108.742188 184.855469 125.0625 194.800781 134.753906 L 221.828125 161.78125 C 231.773438 171.726562 248.089844 171.726562 257.78125 161.78125 C 267.46875 151.835938 267.726562 135.515625 257.78125 125.828125 Z M 546.167969 414.214844 C 536.222656 404.269531 519.902344 404.269531 510.214844 414.214844 C 500.269531 424.160156 500.269531 440.476562 510.214844 450.167969 L 537.242188 477.195312 C 547.1875 487.140625 563.507812 487.140625 573.195312 477.195312 C 583.140625 467.25 583.140625 450.933594 573.195312 441.242188 Z M 573.195312 134.753906 C 583.140625 124.808594 583.140625 108.488281 573.195312 98.800781 C 563.25 88.855469 546.933594 88.855469 537.242188 98.800781 L 510.214844 125.828125 C 500.269531 135.773438 500.269531 152.089844 510.214844 161.78125 C 520.160156 171.46875 536.476562 171.726562 546.167969 161.78125 Z M 257.78125 450.167969 C 267.726562 440.222656 267.726562 423.902344 257.78125 414.214844 C 247.835938 404.269531 231.515625 404.269531 221.828125 414.214844 L 194.800781 441.242188 C 184.855469 451.1875 184.855469 467.507812 194.800781 477.195312 C 204.742188 486.886719 221.0625 487.140625 230.75 477.195312 Z M 257.78125 450.167969 " fill-opacity="1" fill-rule="nonzero"/></g></svg>