<svg xmlns="http://www.w3.org/2000/svg" xmlns:xlink="http://www.w3.org/1999/xlink" width="1024" zoomAndPan="magnify" viewBox="0 0 768 576" height="768" preserveAspectRatio="xMidYMid meet" version="1.0"><defs><clipPath id="85cee6708d"><path d="M 42 26 L 729.296875 26 L 729.296875 554.265625 L 42 554.265625 Z M 42 26 " clip-rule="nonzero"/></clipPath><clipPath id="a25f80c9e9"><path d="M 388.277344 441.300781 L 389.726562 441.300781 L 389.726562 442.496094 L 388.277344 442.496094 Z M 388.277344 441.300781 " clip-rule="nonzero"/></clipPath><clipPath id="c227930a51"><path d="M 389.699219 441.675781 C 389.023438 442.726562 388.425781 442.5 388.351562 442.351562 C 388.199219 442.125 388.351562 441.523438 388.5 441.375 C 388.726562 441.226562 389.476562 441.375 389.476562 441.375 " clip-rule="nonzero"/></clipPath><clipPath id="9fd413f036"><path d="M 154.8125 460.027344 L 158.347656 460.027344 L 158.347656 466.464844 L 154.8125 466.464844 Z M 154.8125 460.027344 " clip-rule="nonzero"/></clipPath><clipPath id="6e6596a133"><path d="M 156.300781 460.5 C 158.175781 466.199219 157.5 466.574219 157.273438 466.425781 C 157.050781 466.351562 157.050781 465.226562 157.273438 465.074219 C 157.425781 465 158.324219 465.523438 158.324219 465.675781 C 158.324219 465.898438 157.5 466.5 157.125 466.351562 C 156.601562 466.273438 156.148438 464.925781 155.773438 464.101562 C 155.324219 463.125 154.648438 461.476562 154.875 460.800781 C 154.949219 460.425781 155.25 460.125 155.550781 460.050781 C 155.773438 460.050781 156.300781 460.5 156.300781 460.5 " clip-rule="nonzero"/></clipPath></defs><g clip-path="url(#85cee6708d)"><path fill="#545454" d="M 673.195312 152.148438 L 636.597656 152.148438 L 614.632812 68.363281 C 606.757812 38.316406 575.90625 20.285156 545.863281 28.160156 L 84.382812 149.136719 C 54.339844 157.011719 36.304688 187.863281 44.179688 217.90625 L 117.523438 497.675781 C 122.71875 517.488281 137.902344 532.074219 156.253906 537.457031 C 166.457031 547.691406 180.5625 554.027344 196.117188 554.027344 L 673.191406 554.027344 C 704.25 554.027344 729.519531 528.761719 729.519531 497.703125 L 729.519531 208.476562 C 729.519531 177.417969 704.25 152.148438 673.195312 152.148438 Z M 555.136719 63.535156 C 565.6875 60.769531 576.484375 67.082031 579.25 77.632812 L 598.785156 152.148438 L 512.84375 152.148438 C 512.621094 150.640625 512.320312 149.128906 511.921875 147.617188 C 506.140625 125.550781 483.5625 112.355469 461.492188 118.136719 C 444.957031 122.472656 433.402344 136.238281 431.082031 152.148438 L 217.113281 152.148438 Z M 79.558594 208.632812 C 76.792969 198.078125 83.105469 187.28125 93.65625 184.515625 L 157.117188 167.878906 C 146.445312 178.136719 139.792969 192.542969 139.792969 208.476562 L 139.792969 438.402344 Z M 692.945312 497.699219 C 692.945312 508.609375 684.101562 517.453125 673.191406 517.453125 L 196.121094 517.453125 C 186.871094 517.453125 179.113281 511.097656 176.960938 502.511719 C 176.574219 500.972656 176.367188 499.359375 176.367188 497.699219 L 176.367188 208.476562 C 176.367188 197.566406 185.210938 188.722656 196.121094 188.722656 L 673.191406 188.722656 C 684.101562 188.722656 692.945312 197.566406 692.945312 208.476562 Z M 692.945312 497.699219 " fill-opacity="1" fill-rule="nonzero"/></g><path fill="#545454" d="M 597.96875 229.890625 C 598.925781 230.847656 599.832031 231.847656 600.691406 232.894531 C 601.546875 233.941406 602.351562 235.027344 603.105469 236.152344 C 603.855469 237.277344 604.550781 238.433594 605.1875 239.628906 C 605.824219 240.820312 606.402344 242.042969 606.921875 243.292969 C 607.4375 244.542969 607.894531 245.8125 608.285156 247.109375 C 608.679688 248.402344 609.007812 249.714844 609.273438 251.039062 C 609.535156 252.367188 609.734375 253.703125 609.867188 255.050781 C 610 256.398438 610.066406 257.746094 610.066406 259.097656 C 610.066406 260.453125 610 261.800781 609.867188 263.148438 C 609.734375 264.492188 609.535156 265.832031 609.273438 267.15625 C 609.007812 268.484375 608.679688 269.792969 608.289062 271.089844 C 607.894531 272.382812 607.441406 273.65625 606.921875 274.90625 C 606.40625 276.15625 605.828125 277.375 605.1875 278.570312 C 604.550781 279.761719 603.855469 280.921875 603.105469 282.046875 C 602.355469 283.171875 601.546875 284.257812 600.691406 285.300781 C 599.832031 286.347656 598.925781 287.347656 597.96875 288.304688 C 597.011719 289.261719 596.011719 290.171875 594.964844 291.027344 C 593.917969 291.886719 592.835938 292.691406 591.710938 293.441406 C 590.585938 294.195312 589.425781 294.890625 588.234375 295.527344 C 587.039062 296.164062 585.816406 296.742188 584.566406 297.261719 C 583.320312 297.777344 582.046875 298.234375 580.75 298.625 C 579.457031 299.019531 578.148438 299.347656 576.820312 299.609375 C 575.492188 299.875 574.15625 300.074219 572.808594 300.207031 C 571.464844 300.339844 570.113281 300.40625 568.761719 300.40625 C 567.410156 300.40625 566.058594 300.339844 564.714844 300.207031 C 563.367188 300.074219 562.03125 299.875 560.703125 299.609375 C 559.375 299.347656 558.066406 299.019531 556.769531 298.625 C 555.476562 298.234375 554.203125 297.777344 552.953125 297.261719 C 551.703125 296.742188 550.484375 296.164062 549.289062 295.527344 C 548.097656 294.890625 546.9375 294.195312 545.8125 293.445312 C 544.6875 292.691406 543.601562 291.886719 542.558594 291.027344 C 541.511719 290.171875 540.511719 289.265625 539.554688 288.308594 C 538.597656 287.351562 537.691406 286.347656 536.832031 285.304688 C 535.972656 284.257812 535.167969 283.171875 534.417969 282.046875 C 533.664062 280.921875 532.972656 279.765625 532.332031 278.570312 C 531.695312 277.378906 531.117188 276.15625 530.601562 274.90625 C 530.082031 273.65625 529.628906 272.386719 529.234375 271.089844 C 528.839844 269.796875 528.511719 268.484375 528.25 267.160156 C 527.984375 265.832031 527.789062 264.496094 527.65625 263.148438 C 527.523438 261.800781 527.457031 260.453125 527.457031 259.101562 C 527.457031 257.746094 527.523438 256.398438 527.65625 255.050781 C 527.789062 253.707031 527.984375 252.367188 528.25 251.042969 C 528.511719 249.714844 528.839844 248.40625 529.234375 247.109375 C 529.625 245.816406 530.082031 244.542969 530.597656 243.292969 C 531.117188 242.042969 531.695312 240.820312 532.332031 239.628906 C 532.96875 238.4375 533.664062 237.277344 534.417969 236.152344 C 535.167969 235.027344 535.972656 233.941406 536.832031 232.894531 C 537.6875 231.851562 538.597656 230.847656 539.554688 229.894531 C 540.511719 228.9375 541.511719 228.027344 542.554688 227.171875 C 543.601562 226.3125 544.6875 225.507812 545.8125 224.757812 C 546.9375 224.003906 548.097656 223.308594 549.289062 222.671875 C 550.480469 222.035156 551.703125 221.457031 552.953125 220.9375 C 554.203125 220.421875 555.476562 219.964844 556.769531 219.574219 C 558.0625 219.179688 559.375 218.851562 560.703125 218.589844 C 562.027344 218.324219 563.363281 218.125 564.710938 217.992188 C 566.058594 217.859375 567.40625 217.792969 568.761719 217.792969 C 570.113281 217.792969 571.460938 217.859375 572.808594 217.992188 C 574.15625 218.125 575.492188 218.324219 576.816406 218.589844 C 578.144531 218.851562 579.457031 219.179688 580.75 219.574219 C 582.042969 219.964844 583.316406 220.421875 584.566406 220.9375 C 585.816406 221.457031 587.039062 222.035156 588.230469 222.671875 C 589.425781 223.308594 590.582031 224.003906 591.707031 224.753906 C 592.832031 225.507812 593.917969 226.3125 594.964844 227.167969 C 596.007812 228.027344 597.011719 228.933594 597.96875 229.890625 Z M 597.96875 229.890625 " fill-opacity="1" fill-rule="nonzero"/><path fill="#545454" d="M 627.628906 476.242188 L 571.320312 436.941406 L 531.941406 409.453125 L 432.03125 339.71875 C 428.667969 337.371094 424.066406 337.988281 421.441406 341.136719 L 397.175781 370.257812 C 394.550781 373.40625 389.960938 374.023438 386.597656 371.683594 L 285.347656 301.25 C 281.480469 298.5625 276.132812 299.832031 273.890625 303.976562 L 204.898438 431.460938 C 204.273438 432.613281 203.949219 433.90625 203.949219 435.21875 L 203.949219 482.722656 C 203.949219 487.082031 207.484375 490.617188 211.84375 490.617188 L 623.105469 490.617188 C 630.835938 490.617188 633.964844 480.667969 627.628906 476.242188 Z M 627.628906 476.242188 " fill-opacity="1" fill-rule="nonzero"/><g clip-path="url(#a25f80c9e9)"><g clip-path="url(#c227930a51)"><path fill="#545454" d="M 385.351562 438.375 L 392.765625 438.375 L 392.765625 445.648438 L 385.351562 445.648438 Z M 385.351562 438.375 " fill-opacity="1" fill-rule="nonzero"/></g></g><g clip-path="url(#9fd413f036)"><g clip-path="url(#6e6596a133)"><path fill="#545454" d="M 151.875 457.050781 L 161.398438 457.050781 L 161.398438 469.515625 L 151.875 469.515625 Z M 151.875 457.050781 " fill-opacity="1" fill-rule="nonzero"/></g></g></svg>