<svg     class="right-arrow-icon" xmlns="http://www.w3.org/2000/svg" xmlns:xlink="http://www.w3.org/1999/xlink" width="1024" zoomAndPan="magnify" viewBox="0 0 768 576" height="768" preserveAspectRatio="xMidYMid meet" version="1.0"><defs><clipPath id="fbf8671b27"><path d="M 388.277344 441.300781 L 389.726562 441.300781 L 389.726562 442.496094 L 388.277344 442.496094 Z M 388.277344 441.300781 " clip-rule="nonzero"/></clipPath><clipPath id="5552f2aad8"><path d="M 389.699219 441.675781 C 389.023438 442.726562 388.425781 442.5 388.351562 442.351562 C 388.199219 442.125 388.351562 441.523438 388.5 441.375 C 388.726562 441.226562 389.476562 441.375 389.476562 441.375 " clip-rule="nonzero"/></clipPath><clipPath id="28641a8d26"><path d="M 21 42 L 755.917969 42 L 755.917969 540 L 21 540 Z M 21 42 " clip-rule="nonzero"/></clipPath></defs><g clip-path="url(#fbf8671b27)"><g clip-path="url(#5552f2aad8)"><path fill="#545454" d="M 385.351562 438.375 L 392.765625 438.375 L 392.765625 445.648438 L 385.351562 445.648438 Z M 385.351562 438.375 " fill-opacity="1" fill-rule="nonzero"/></g></g><g clip-path="url(#28641a8d26)"><path fill="#545454" d="M 701.621094 236.804688 L 205.839844 236.804688 C 205.839844 236.804688 310.285156 133.113281 313.042969 129.566406 C 320.207031 120.378906 324.511719 108.859375 324.511719 96.320312 C 324.511719 82.460938 319.277344 69.871094 310.722656 60.261719 L 306.332031 55.871094 C 296.742188 47.320312 284.132812 42.066406 270.277344 42.066406 C 256.03125 42.066406 243.089844 47.636719 233.414062 56.628906 C 233.414062 56.628906 33.371094 256.351562 32.351562 257.667969 C 25.273438 266.835938 21.023438 278.269531 21.023438 290.757812 C 21.023438 303.210938 25.273438 314.660156 32.335938 323.8125 C 35.199219 327.515625 235.90625 527.363281 235.90625 527.363281 C 245.214844 534.917969 257.070312 539.449219 269.996094 539.449219 C 299.941406 539.449219 324.230469 515.175781 324.230469 485.230469 C 324.230469 472.09375 319.558594 460.046875 311.796875 450.667969 L 205.839844 344.710938 L 701.621094 344.710938 C 731.421875 344.710938 755.574219 320.542969 755.574219 290.757812 C 755.574219 260.953125 731.421875 236.804688 701.621094 236.804688 " fill-opacity="1" fill-rule="nonzero"/></g></svg>