<svg   class="shopping-cart"
            
            alt="shopping-cart"
            title="open your cart" xmlns="http://www.w3.org/2000/svg" xmlns:xlink="http://www.w3.org/1999/xlink" width="1024" zoomAndPan="magnify" viewBox="0 0 768 576" height="768" preserveAspectRatio="xMidYMid meet" version="1.0"><defs><clipPath id="db3dbb4921"><path d="M 388.277344 441.300781 L 389.726562 441.300781 L 389.726562 442.496094 L 388.277344 442.496094 Z M 388.277344 441.300781 " clip-rule="nonzero"/></clipPath><clipPath id="2117ccd90d"><path d="M 389.699219 441.675781 C 389.023438 442.726562 388.425781 442.5 388.351562 442.351562 C 388.199219 442.125 388.351562 441.523438 388.5 441.375 C 388.726562 441.226562 389.476562 441.375 389.476562 441.375 " clip-rule="nonzero"/></clipPath><clipPath id="5d7b8dbaa1"><path d="M 83 10.789062 L 655 10.789062 L 655 452 L 83 452 Z M 83 10.789062 " clip-rule="nonzero"/></clipPath><clipPath id="139fda9dbd"><path d="M 227 469 L 324 469 L 324 565.039062 L 227 565.039062 Z M 227 469 " clip-rule="nonzero"/></clipPath><clipPath id="cdb402e270"><path d="M 499 469 L 595 469 L 595 565.039062 L 499 565.039062 Z M 499 469 " clip-rule="nonzero"/></clipPath></defs><g clip-path="url(#db3dbb4921)"><g clip-path="url(#2117ccd90d)"><path fill="#545454" d="M 385.351562 438.375 L 392.765625 438.375 L 392.765625 445.648438 L 385.351562 445.648438 Z M 385.351562 438.375 " fill-opacity="1" fill-rule="nonzero"/></g></g><g clip-path="url(#5d7b8dbaa1)"><path fill="#545454" d="M 648.609375 102.496094 C 644.074219 97 637.316406 93.8125 630.183594 93.8125 L 222.425781 93.8125 L 202.796875 27.882812 C 199.78125 17.746094 190.46875 10.800781 179.894531 10.800781 L 106.9375 10.800781 C 93.738281 10.800781 83.035156 21.503906 83.035156 34.703125 C 83.035156 47.902344 93.738281 58.597656 106.9375 58.597656 L 162.066406 58.597656 L 251.386719 358.613281 C 241.707031 376.363281 232.519531 401.777344 242.933594 423.066406 C 252.152344 441.914062 272.984375 451.472656 304.84375 451.472656 C 305.417969 451.472656 305.996094 451.449219 306.574219 451.390625 C 308.644531 451.199219 514.535156 432.324219 585.523438 436.34375 C 595.871094 436.898438 604.839844 428.976562 605.425781 418.570312 C 606.015625 408.167969 598.054688 399.253906 587.644531 398.679688 C 515.570312 394.609375 320.945312 412.183594 304.007812 413.734375 C 286.539062 413.621094 278.449219 409.777344 276.832031 406.488281 C 275.035156 402.828125 276.316406 395.902344 279.34375 388.070312 C 279.851562 388.039062 280.351562 388.035156 280.871094 387.972656 L 592.796875 350.242188 C 603.105469 348.988281 611.433594 341.222656 613.394531 331.035156 L 653.652344 122.246094 C 654.996094 115.234375 653.148438 107.996094 648.609375 102.496094 Z M 475.472656 218.425781 L 377.367188 218.425781 L 377.367188 141.613281 L 475.472656 141.613281 Z M 266.269531 241.066406 L 354.730469 241.066406 L 354.730469 330.890625 L 295.152344 338.101562 Z M 377.367188 241.066406 L 475.472656 241.066406 L 475.472656 316.285156 L 377.367188 328.152344 Z M 586.433594 218.425781 L 498.113281 218.425781 L 498.113281 141.613281 L 601.242188 141.613281 Z M 354.730469 141.613281 L 354.730469 218.425781 L 259.527344 218.425781 L 236.65625 141.613281 Z M 498.113281 313.542969 L 498.113281 241.066406 L 582.066406 241.066406 L 569.761719 304.871094 Z M 498.113281 313.542969 " fill-opacity="1" fill-rule="nonzero"/></g><g clip-path="url(#139fda9dbd)"><path fill="#545454" d="M 323.28125 517.644531 C 323.28125 519.207031 323.203125 520.769531 323.050781 522.324219 C 322.898438 523.878906 322.667969 525.425781 322.363281 526.960938 C 322.058594 528.492188 321.679688 530.007812 321.226562 531.503906 C 320.769531 533 320.246094 534.472656 319.644531 535.917969 C 319.046875 537.363281 318.378906 538.773438 317.644531 540.152344 C 316.90625 541.53125 316.101562 542.871094 315.234375 544.171875 C 314.363281 545.472656 313.433594 546.726562 312.441406 547.9375 C 311.449219 549.144531 310.402344 550.304688 309.296875 551.410156 C 308.1875 552.515625 307.03125 553.5625 305.824219 554.554688 C 304.613281 555.546875 303.359375 556.476562 302.058594 557.347656 C 300.757812 558.214844 299.417969 559.019531 298.039062 559.757812 C 296.660156 560.492188 295.25 561.160156 293.804688 561.761719 C 292.359375 562.359375 290.886719 562.882812 289.390625 563.339844 C 287.894531 563.792969 286.378906 564.171875 284.84375 564.476562 C 283.3125 564.78125 281.765625 565.011719 280.210938 565.164062 C 278.652344 565.316406 277.09375 565.394531 275.53125 565.394531 C 273.964844 565.394531 272.40625 565.316406 270.847656 565.164062 C 269.292969 565.011719 267.746094 564.78125 266.214844 564.476562 C 264.679688 564.171875 263.164062 563.792969 261.667969 563.339844 C 260.171875 562.882812 258.703125 562.359375 257.257812 561.761719 C 255.8125 561.160156 254.398438 560.492188 253.019531 559.757812 C 251.640625 559.019531 250.300781 558.214844 249 557.347656 C 247.699219 556.476562 246.445312 555.546875 245.238281 554.554688 C 244.027344 553.5625 242.871094 552.515625 241.765625 551.410156 C 240.660156 550.304688 239.609375 549.144531 238.617188 547.9375 C 237.625 546.726562 236.695312 545.472656 235.828125 544.171875 C 234.957031 542.871094 234.15625 541.53125 233.417969 540.152344 C 232.679688 538.773438 232.011719 537.363281 231.414062 535.917969 C 230.816406 534.472656 230.289062 533 229.835938 531.503906 C 229.382812 530.007812 229 528.492188 228.695312 526.960938 C 228.390625 525.425781 228.160156 523.878906 228.007812 522.324219 C 227.855469 520.769531 227.777344 519.207031 227.777344 517.644531 C 227.777344 516.078125 227.855469 514.519531 228.007812 512.964844 C 228.160156 511.40625 228.390625 509.863281 228.695312 508.328125 C 229 506.792969 229.382812 505.277344 229.835938 503.78125 C 230.289062 502.285156 230.816406 500.816406 231.414062 499.371094 C 232.011719 497.925781 232.679688 496.511719 233.417969 495.132812 C 234.15625 493.753906 234.957031 492.414062 235.828125 491.113281 C 236.695312 489.8125 237.625 488.558594 238.617188 487.351562 C 239.609375 486.140625 240.660156 484.984375 241.765625 483.878906 C 242.871094 482.773438 244.027344 481.722656 245.238281 480.730469 C 246.445312 479.738281 247.699219 478.808594 249 477.941406 C 250.300781 477.070312 251.640625 476.269531 253.019531 475.53125 C 254.398438 474.792969 255.8125 474.125 257.257812 473.527344 C 258.703125 472.929688 260.171875 472.402344 261.667969 471.949219 C 263.164062 471.496094 264.679688 471.113281 266.214844 470.808594 C 267.746094 470.503906 269.292969 470.277344 270.847656 470.121094 C 272.40625 469.96875 273.964844 469.894531 275.53125 469.894531 C 277.09375 469.894531 278.652344 469.96875 280.210938 470.121094 C 281.765625 470.277344 283.3125 470.503906 284.84375 470.808594 C 286.378906 471.117188 287.894531 471.496094 289.390625 471.949219 C 290.886719 472.402344 292.359375 472.929688 293.804688 473.527344 C 295.25 474.125 296.660156 474.792969 298.039062 475.53125 C 299.417969 476.269531 300.757812 477.070312 302.058594 477.941406 C 303.359375 478.808594 304.613281 479.738281 305.824219 480.730469 C 307.03125 481.722656 308.1875 482.773438 309.296875 483.878906 C 310.402344 484.984375 311.449219 486.140625 312.441406 487.351562 C 313.433594 488.558594 314.363281 489.8125 315.234375 491.113281 C 316.101562 492.414062 316.90625 493.753906 317.644531 495.132812 C 318.378906 496.511719 319.046875 497.925781 319.644531 499.371094 C 320.246094 500.816406 320.769531 502.285156 321.226562 503.78125 C 321.679688 505.277344 322.058594 506.792969 322.363281 508.328125 C 322.667969 509.863281 322.898438 511.40625 323.050781 512.964844 C 323.203125 514.519531 323.28125 516.078125 323.28125 517.644531 Z M 323.28125 517.644531 " fill-opacity="1" fill-rule="nonzero"/></g><g clip-path="url(#cdb402e270)"><path fill="#545454" d="M 594.960938 517.644531 C 594.960938 519.207031 594.882812 520.769531 594.730469 522.324219 C 594.578125 523.878906 594.347656 525.425781 594.042969 526.960938 C 593.738281 528.492188 593.359375 530.007812 592.90625 531.503906 C 592.449219 533 591.925781 534.472656 591.328125 535.917969 C 590.726562 537.363281 590.058594 538.773438 589.324219 540.152344 C 588.585938 541.53125 587.78125 542.871094 586.914062 544.171875 C 586.042969 545.472656 585.113281 546.726562 584.121094 547.9375 C 583.128906 549.144531 582.082031 550.304688 580.976562 551.410156 C 579.871094 552.515625 578.710938 553.5625 577.503906 554.554688 C 576.292969 555.546875 575.039062 556.476562 573.738281 557.347656 C 572.4375 558.214844 571.097656 559.019531 569.71875 559.757812 C 568.339844 560.492188 566.929688 561.160156 565.484375 561.761719 C 564.039062 562.359375 562.566406 562.882812 561.070312 563.339844 C 559.574219 563.792969 558.058594 564.171875 556.527344 564.476562 C 554.992188 564.78125 553.445312 565.011719 551.890625 565.164062 C 550.335938 565.316406 548.773438 565.394531 547.210938 565.394531 C 545.644531 565.394531 544.085938 565.316406 542.53125 565.164062 C 540.972656 565.011719 539.429688 564.78125 537.894531 564.476562 C 536.359375 564.171875 534.84375 563.792969 533.347656 563.339844 C 531.851562 562.882812 530.382812 562.359375 528.9375 561.761719 C 527.492188 561.160156 526.078125 560.492188 524.699219 559.757812 C 523.320312 559.019531 521.980469 558.214844 520.679688 557.347656 C 519.378906 556.476562 518.125 555.546875 516.917969 554.554688 C 515.707031 553.5625 514.550781 552.515625 513.445312 551.410156 C 512.339844 550.304688 511.289062 549.144531 510.296875 547.9375 C 509.304688 546.726562 508.375 545.472656 507.507812 544.171875 C 506.636719 542.871094 505.835938 541.53125 505.097656 540.152344 C 504.359375 538.773438 503.691406 537.363281 503.09375 535.917969 C 502.496094 534.472656 501.96875 533 501.515625 531.503906 C 501.0625 530.007812 500.679688 528.492188 500.375 526.960938 C 500.070312 525.425781 499.84375 523.878906 499.6875 522.324219 C 499.535156 520.769531 499.457031 519.207031 499.457031 517.644531 C 499.457031 516.078125 499.535156 514.519531 499.6875 512.964844 C 499.84375 511.40625 500.070312 509.863281 500.375 508.328125 C 500.679688 506.792969 501.0625 505.277344 501.515625 503.78125 C 501.96875 502.285156 502.496094 500.816406 503.09375 499.371094 C 503.691406 497.925781 504.359375 496.511719 505.097656 495.132812 C 505.835938 493.753906 506.636719 492.414062 507.507812 491.113281 C 508.375 489.8125 509.304688 488.558594 510.296875 487.351562 C 511.289062 486.140625 512.339844 484.984375 513.445312 483.878906 C 514.550781 482.773438 515.707031 481.722656 516.917969 480.730469 C 518.125 479.738281 519.378906 478.808594 520.679688 477.941406 C 521.980469 477.070312 523.320312 476.269531 524.699219 475.53125 C 526.078125 474.792969 527.492188 474.125 528.9375 473.527344 C 530.382812 472.929688 531.851562 472.402344 533.347656 471.949219 C 534.84375 471.496094 536.359375 471.113281 537.894531 470.808594 C 539.429688 470.503906 540.972656 470.277344 542.53125 470.121094 C 544.085938 469.96875 545.644531 469.894531 547.210938 469.894531 C 548.773438 469.894531 550.335938 469.96875 551.890625 470.121094 C 553.445312 470.277344 554.992188 470.503906 556.527344 470.808594 C 558.058594 471.117188 559.574219 471.496094 561.070312 471.949219 C 562.566406 472.402344 564.039062 472.929688 565.484375 473.527344 C 566.929688 474.125 568.339844 474.792969 569.71875 475.53125 C 571.097656 476.269531 572.4375 477.070312 573.738281 477.941406 C 575.039062 478.808594 576.292969 479.738281 577.503906 480.730469 C 578.710938 481.722656 579.871094 482.773438 580.976562 483.878906 C 582.082031 484.984375 583.128906 486.140625 584.121094 487.351562 C 585.113281 488.558594 586.042969 489.8125 586.914062 491.113281 C 587.78125 492.414062 588.585938 493.753906 589.324219 495.132812 C 590.058594 496.511719 590.726562 497.925781 591.328125 499.371094 C 591.925781 500.816406 592.449219 502.285156 592.90625 503.78125 C 593.359375 505.277344 593.738281 506.792969 594.042969 508.328125 C 594.347656 509.863281 594.578125 511.40625 594.730469 512.964844 C 594.882812 514.519531 594.960938 516.078125 594.960938 517.644531 Z M 594.960938 517.644531 " fill-opacity="1" fill-rule="nonzero"/></g></svg>